<svg role="img" viewBox="0 0 24 24" xmlns="http://www.w3.org/2000/svg" id="Codefresh--Streamline-Simple-Icons" height="24" width="24">
  <desc>
    Codefresh Streamline Icon: https://streamlinehq.com
  </desc>
  <title>Codefresh</title>
  <path d="M0 2.84c1.402 2.71 1.445 5.241 2.977 10.4 1.855 5.341 8.703 5.701 9.21 5.711 0.46 0.726 1.513 1.704 3.926 2.21l0.268 -1.272c-2.082 -0.436 -2.844 -1.239 -3.106 -1.68l-0.005 0.006c0.087 -0.484 1.523 -5.377 -1.323 -9.352C7.182 3.583 0 2.84 0 2.84zm24 0.84c-3.898 0.611 -4.293 -0.92 -11.473 3.093a11.879 11.879 0 0 1 2.625 10.05c3.723 -1.486 5.166 -3.976 5.606 -6.466 0 0 1.27 -4.716 3.242 -6.677zM12.527 6.773l-0.002 -0.002v0.004l0.002 -0.002zM2.643 5.22s5.422 1.426 8.543 11.543c-2.945 -0.889 -4.203 -3.796 -4.63 -5.168h0.006a15.863 15.863 0 0 0 -3.92 -6.375z" fill="#000000" stroke-width="1"></path>
</svg>